<svg width="100" height="100" viewBox="0 0 100 100" fill="none" xmlns="http://www.w3.org/2000/svg">
  <defs>
    <linearGradient id="fc" x1="10" y1="5" x2="90" y2="95" gradientUnits="userSpaceOnUse">
      <stop stop-color="#6ee7b7"/><stop offset="0.3" stop-color="#34d399"/><stop offset="0.6" stop-color="#059669"/><stop offset="1" stop-color="#047857"/>
    </linearGradient>
    <linearGradient id="fl" x1="8" y1="35" x2="40" y2="92" gradientUnits="userSpaceOnUse">
      <stop stop-color="#059669"/><stop offset="1" stop-color="#064e3b"/>
    </linearGradient>
    <linearGradient id="fr" x1="60" y1="35" x2="92" y2="92" gradientUnits="userSpaceOnUse">
      <stop stop-color="#10b981"/><stop offset="1" stop-color="#047857"/>
    </linearGradient>
    <linearGradient id="fm" x1="30" y1="40" x2="70" y2="92" gradientUnits="userSpaceOnUse">
      <stop stop-color="#10b981"/><stop offset="0.4" stop-color="#059669"/><stop offset="1" stop-color="#065f46"/>
    </linearGradient>
    <radialGradient id="fs" cx="0.5" cy="0.5" r="0.5">
      <stop stop-color="white" stop-opacity="1"/><stop offset="0.4" stop-color="white" stop-opacity="0.6"/><stop offset="1" stop-color="white" stop-opacity="0"/>
    </radialGradient>
  </defs>
  <polygon points="50,4 8,35 26,40" fill="#a7f3d0"/>
  <polygon points="50,4 92,35 74,40" fill="#6ee7b7"/>
  <polygon points="50,4 26,40 42,38" fill="#34d399"/>
  <polygon points="50,4 74,40 58,38" fill="#4ade80"/>
  <polygon points="42,38 58,38 74,40 26,40" fill="#a7f3d0" opacity="0.6"/>
  <polygon points="8,35 26,40 50,92" fill="url(#fl)"/>
  <polygon points="26,40 42,38 50,92" fill="#047857"/>
  <polygon points="42,38 58,38 50,92" fill="url(#fm)"/>
  <polygon points="58,38 74,40 50,92" fill="#059669"/>
  <polygon points="74,40 92,35 50,92" fill="url(#fr)"/>
  <polyline points="8,35 50,4 92,35 50,92 8,35" fill="none" stroke="#064e3b" stroke-width="2" stroke-linejoin="round"/>
  <line x1="26" y1="40" x2="50" y2="4" stroke="#065f46" stroke-width="1" opacity="0.6"/>
  <line x1="74" y1="40" x2="50" y2="4" stroke="#065f46" stroke-width="1" opacity="0.6"/>
  <line x1="8" y1="35" x2="92" y2="35" stroke="#065f46" stroke-width="0.7" opacity="0.5"/>
  <line x1="26" y1="40" x2="50" y2="92" stroke="#065f46" stroke-width="0.8" opacity="0.4"/>
  <line x1="74" y1="40" x2="50" y2="92" stroke="#065f46" stroke-width="0.8" opacity="0.4"/>
  <circle cx="62" cy="18" r="8" fill="url(#fs)"/>
  <circle cx="62" cy="18" r="2.5" fill="white" opacity="0.95"/>
  <circle cx="38" cy="14" r="4" fill="url(#fs)" opacity="0.5"/>
</svg>
